<?xml version="1.0" encoding="UTF-8" standalone="no"?>
<!DOCTYPE svg PUBLIC "-//W3C//DTD SVG 1.1//EN" "http://www.w3.org/Graphics/SVG/1.1/DTD/svg11.dtd">
<svg width="100%" height="100%" viewBox="0 0 2732 2048" version="1.1" xmlns="http://www.w3.org/2000/svg" xmlns:xlink="http://www.w3.org/1999/xlink" xml:space="preserve" xmlns:serif="http://www.serif.com/" style="fill-rule:evenodd;clip-rule:evenodd;stroke-linecap:round;stroke-linejoin:round;stroke-miterlimit:1.5;">
    <g id="Layer5">
    </g>
    <g transform="matrix(0.802861,-0.00374741,0.00374741,0.802861,463.632,306.312)">
        <g id="Layer2">
            <g transform="matrix(0.937605,0.347703,-0.308285,0.831311,1395.61,-531.32)">
                <rect x="1247.56" y="517.599" width="53.733" height="506.401" style="fill:none;stroke:rgb(170,133,40);stroke-width:13.18px;"/>
            </g>
            <g transform="matrix(0.937605,0.347703,-0.294389,0.793839,1376.1,-494.907)">
                <rect x="1208.39" y="1024" width="143.326" height="56.837" style="fill:none;stroke:rgb(170,133,40);stroke-width:13.44px;"/>
            </g>
            <g transform="matrix(1.04627,0.388,-0.434689,1.17217,1183.32,-844)">
                <rect x="1393.79" y="887.854" width="48.153" height="13.835" style="fill:none;stroke:rgb(170,133,40);stroke-width:10.51px;"/>
            </g>
            <g transform="matrix(1.04627,0.388,-0.434689,1.17217,1189.33,-860.217)">
                <rect x="1393.79" y="887.854" width="48.153" height="13.835" style="fill:none;stroke:rgb(170,133,40);stroke-width:10.51px;"/>
            </g>
            <g transform="matrix(1.04627,0.388,-0.434689,1.17217,1195.35,-876.434)">
                <rect x="1393.79" y="887.854" width="48.153" height="13.835" style="fill:none;stroke:rgb(170,133,40);stroke-width:10.51px;"/>
            </g>
            <g transform="matrix(1.04627,0.388,-0.434689,1.17217,1201.36,-892.651)">
                <rect x="1393.79" y="887.854" width="48.153" height="13.835" style="fill:none;stroke:rgb(170,133,40);stroke-width:10.51px;"/>
            </g>
            <g transform="matrix(1.04627,0.388,-0.434689,1.17217,1207.37,-908.867)">
                <rect x="1393.79" y="887.854" width="48.153" height="13.835" style="fill:none;stroke:rgb(170,133,40);stroke-width:10.51px;"/>
            </g>
            <g transform="matrix(1.04627,0.388,-0.434689,1.17217,1213.39,-925.084)">
                <rect x="1393.79" y="887.854" width="48.153" height="13.835" style="fill:none;stroke:rgb(170,133,40);stroke-width:10.51px;"/>
            </g>
            <g transform="matrix(1.04627,0.388,-0.434689,1.17217,1219.4,-941.301)">
                <rect x="1393.79" y="887.854" width="48.153" height="13.835" style="fill:none;stroke:rgb(170,133,40);stroke-width:10.51px;"/>
            </g>
            <g transform="matrix(1.04627,0.388,-0.434689,1.17217,1225.42,-957.518)">
                <rect x="1393.79" y="887.854" width="48.153" height="13.835" style="fill:none;stroke:rgb(170,133,40);stroke-width:10.51px;"/>
            </g>
            <g transform="matrix(1.04627,0.388,-0.434689,1.17217,1231.43,-973.735)">
                <rect x="1393.79" y="887.854" width="48.153" height="13.835" style="fill:none;stroke:rgb(170,133,40);stroke-width:10.51px;"/>
            </g>
            <g transform="matrix(1.04627,0.388,-0.434689,1.17217,1237.44,-989.952)">
                <rect x="1393.79" y="887.854" width="48.153" height="13.835" style="fill:none;stroke:rgb(170,133,40);stroke-width:10.51px;"/>
            </g>
            <g transform="matrix(1.04627,0.388,-0.434689,1.17217,1243.46,-1006.17)">
                <rect x="1393.79" y="887.854" width="48.153" height="13.835" style="fill:none;stroke:rgb(170,133,40);stroke-width:10.51px;"/>
            </g>
            <g transform="matrix(1.04627,0.388,-0.434689,1.17217,1249.47,-1022.39)">
                <rect x="1393.79" y="887.854" width="48.153" height="13.835" style="fill:none;stroke:rgb(170,133,40);stroke-width:10.51px;"/>
            </g>
            <g transform="matrix(1.04627,0.388,-0.434689,1.17217,1255.36,-1038.27)">
                <rect x="1393.79" y="887.854" width="48.153" height="13.835" style="fill:none;stroke:rgb(170,133,40);stroke-width:10.51px;"/>
            </g>
            <g transform="matrix(1.04627,0.388,-0.434689,1.17217,1261.38,-1054.49)">
                <rect x="1393.79" y="887.854" width="48.153" height="13.835" style="fill:none;stroke:rgb(170,133,40);stroke-width:10.51px;"/>
            </g>
            <g transform="matrix(1.04627,0.388,-0.434689,1.17217,1267.39,-1070.71)">
                <rect x="1393.79" y="887.854" width="48.153" height="13.835" style="fill:none;stroke:rgb(170,133,40);stroke-width:10.51px;"/>
            </g>
            <g transform="matrix(1.04627,0.388,-0.434689,1.17217,1273.4,-1086.92)">
                <rect x="1393.79" y="887.854" width="48.153" height="13.835" style="fill:none;stroke:rgb(170,133,40);stroke-width:10.51px;"/>
            </g>
            <g transform="matrix(1.04627,0.388,-0.434689,1.17217,1279.42,-1103.14)">
                <rect x="1393.79" y="887.854" width="48.153" height="13.835" style="fill:none;stroke:rgb(170,133,40);stroke-width:10.51px;"/>
            </g>
            <g transform="matrix(1.04627,0.388,-0.434689,1.17217,1285.43,-1119.36)">
                <rect x="1393.79" y="887.854" width="48.153" height="13.835" style="fill:none;stroke:rgb(170,133,40);stroke-width:10.51px;"/>
            </g>
            <g transform="matrix(1.04627,0.388,-0.434689,1.17217,1291.45,-1135.57)">
                <rect x="1393.79" y="887.854" width="48.153" height="13.835" style="fill:none;stroke:rgb(170,133,40);stroke-width:10.51px;"/>
            </g>
            <g transform="matrix(1.04627,0.388,-0.434689,1.17217,1297.46,-1151.79)">
                <rect x="1393.79" y="887.854" width="48.153" height="13.835" style="fill:none;stroke:rgb(170,133,40);stroke-width:10.51px;"/>
            </g>
            <g transform="matrix(1.04627,0.388,-0.434689,1.17217,1303.47,-1168.01)">
                <rect x="1393.79" y="887.854" width="48.153" height="13.835" style="fill:none;stroke:rgb(170,133,40);stroke-width:10.51px;"/>
            </g>
            <g transform="matrix(1.91542,0.710318,-0.310008,0.835956,166.989,-1044.27)">
                <rect x="1266.63" y="517.038" width="16.25" height="57.971" style="fill:none;stroke:rgb(170,133,40);stroke-width:7.9px;"/>
            </g>
            <g transform="matrix(0.937605,0.347703,-0.347703,0.937605,1473.04,-583.382)">
                <rect x="1202.76" y="482.971" width="30.307" height="11.982" style="fill:none;stroke:rgb(170,133,40);stroke-width:9.96px;"/>
            </g>
            <g transform="matrix(0.937605,0.347703,-0.347703,0.937605,1468.22,-570.386)">
                <rect x="1202.76" y="482.971" width="30.307" height="11.982" style="fill:none;stroke:rgb(170,133,40);stroke-width:9.96px;"/>
            </g>
            <g transform="matrix(1.11058,0.39941,-0.287841,0.80036,1182.64,-552.456)">
                <rect x="1247.56" y="385.542" width="9.7" height="38.693" style="fill:none;stroke:rgb(170,133,40);stroke-width:9.69px;"/>
            </g>
            <g transform="matrix(1.02095,0.378612,-0.593646,1.6008,1447.74,-996.18)">
                <rect x="1249.26" y="461.464" width="49.346" height="16.234" style="fill:none;stroke:rgb(170,133,40);stroke-width:8.7px;"/>
            </g>
            <g id="Layer3">
                <g transform="matrix(2.87176,1.27301,-1.62041,3.65545,-2895.82,-4830.02)">
                    <path d="M2210.44,756.189L2214.87,761.406L2210.44,766.624L2206.01,761.406L2210.44,756.189Z" style="fill:none;stroke:rgb(170,133,40);stroke-width:3.46px;"/>
                </g>
                <g transform="matrix(2.87176,1.27301,-1.62041,3.65545,-2870.4,-4819.19)">
                    <path d="M2210.44,756.189L2214.87,761.406L2210.44,766.624L2206.01,761.406L2210.44,756.189Z" style="fill:none;stroke:rgb(170,133,40);stroke-width:3.46px;"/>
                </g>
                <g transform="matrix(2.87176,1.27301,-1.62041,3.65545,-2844.97,-4810.95)">
                    <path d="M2210.44,756.189L2214.87,761.406L2210.44,766.624L2206.01,761.406L2210.44,756.189Z" style="fill:none;stroke:rgb(170,133,40);stroke-width:3.46px;"/>
                </g>
                <g transform="matrix(2.87176,1.27301,-1.62041,3.65545,-2819.55,-4800.12)">
                    <path d="M2210.44,756.189L2214.87,761.406L2210.44,766.624L2206.01,761.406L2210.44,756.189Z" style="fill:none;stroke:rgb(170,133,40);stroke-width:3.46px;"/>
                </g>
                <g transform="matrix(2.87176,1.27301,-1.62041,3.65545,-2794.13,-4791.88)">
                    <path d="M2210.44,756.189L2214.87,761.406L2210.44,766.624L2206.01,761.406L2210.44,756.189Z" style="fill:none;stroke:rgb(170,133,40);stroke-width:3.46px;"/>
                </g>
            </g>
        </g>
    </g>
    <g transform="matrix(1,0,0,1,-12.8084,174.844)">
        <path d="M461.977,1414C461.977,1446.67 452.31,1467.67 432.977,1477C422.31,1482.34 400.643,1485 367.977,1485C333.977,1485 308.977,1483.34 292.977,1480C253.643,1472 215.977,1448.5 179.977,1409.5C143.977,1370.5 125.977,1331.34 125.977,1292L125.977,670.001C125.977,657.335 134.977,646.668 152.977,638.001C167.643,630.668 182.31,627.001 196.977,627.001C235.643,627.001 258.31,641.668 264.977,671.001L266.977,766.001C277.643,768.668 291.977,770.001 309.977,770.001C312.643,770.001 316.977,769.668 322.977,769.001L334.977,769.001C362.31,769.001 382.143,773.835 394.477,783.501C406.81,793.168 412.977,811.668 412.977,839.001C412.977,879.001 398.31,901.668 368.977,907.001C336.31,907.668 303.643,908.668 270.977,910.001L267.977,1279C274.643,1304.34 284.477,1321.5 297.477,1330.5C310.477,1339.5 330.643,1344 357.977,1344L383.977,1344C410.643,1344 430.31,1349 442.977,1359C455.643,1369 461.977,1387.34 461.977,1414Z" style="fill:none;fill-rule:nonzero;stroke:rgb(231,92,101);stroke-width:26px;stroke-linecap:butt;stroke-miterlimit:2;"/>
        <path d="M900.977,1293C896.31,1324.34 879.643,1356 850.977,1388C825.643,1418 797.643,1440.34 766.977,1455C725.643,1475 688.643,1485 655.977,1485C596.643,1485 548.977,1462 512.977,1416C484.977,1380.67 470.977,1345 470.977,1309C470.977,1301.67 471.31,1296 471.977,1292L547.977,812.001C549.977,800.001 560.643,789.335 579.977,780.001C595.977,772.001 611.31,768.001 625.977,768.001C637.31,768.001 650.31,771.668 664.977,779.001C683.643,788.335 691.977,799.001 689.977,811.001L614.977,1286C612.977,1298.67 618.31,1311.34 630.977,1324C643.643,1336.67 659.31,1343 677.977,1343C692.643,1343 709.477,1336.84 728.477,1324.5C747.477,1312.17 757.977,1299 759.977,1285L834.977,812.001C836.977,800.001 847.643,789.335 866.977,780.001C883.643,772.001 898.977,768.001 912.977,768.001C926.31,768.001 939.977,771.668 953.977,779.001C971.31,788.335 978.977,799.001 976.977,811.001L900.977,1293Z" style="fill:none;fill-rule:nonzero;stroke:rgb(231,92,101);stroke-width:26px;stroke-linecap:butt;stroke-miterlimit:2;"/>
        <path d="M1377.98,1293C1372.64,1325.67 1356.31,1357.67 1328.98,1389C1304.31,1417.67 1275.98,1439.67 1243.98,1455C1202.64,1475 1165.98,1485 1133.98,1485C1074.64,1485 1026.98,1462 990.977,1416C962.31,1380.67 947.977,1345 947.977,1309C947.977,1303 948.643,1297.34 949.977,1292L1047.98,670.001C1049.98,656.668 1061.64,645.668 1082.98,637.001C1098.98,630.335 1113.31,627.001 1125.98,627.001C1139.98,627.001 1153.98,630.668 1167.98,638.001C1184.64,646.001 1191.98,656.335 1189.98,669.001L1171.98,783.001C1196.64,773.001 1221.64,768.001 1246.98,768.001C1260.31,768.001 1275.64,769.668 1292.98,773.001C1329.64,780.335 1361.98,801.501 1389.98,836.501C1417.98,871.501 1431.98,907.668 1431.98,945.001C1431.98,951.001 1431.64,956.001 1430.98,960.001L1377.98,1293ZM1237.98,1286L1287.98,967.001C1289.98,954.335 1283.31,941.668 1267.98,929.001C1252.64,916.335 1238.31,910.001 1224.98,910.001C1209.64,910.001 1192.64,916.168 1173.98,928.501C1155.31,940.835 1144.98,954.001 1142.98,968.001L1091.98,1285C1089.98,1298.34 1096.64,1311.34 1111.98,1324C1127.31,1336.67 1141.98,1343 1155.98,1343C1169.98,1343 1186.64,1336.84 1205.98,1324.5C1225.31,1312.17 1235.98,1299.34 1237.98,1286Z" style="fill:none;fill-rule:nonzero;stroke:rgb(231,92,101);stroke-width:26px;stroke-linecap:butt;stroke-miterlimit:2;"/>
        <path d="M1781.98,1428C1732.64,1466 1681.64,1485 1628.98,1485C1569.64,1485 1521.98,1462 1485.98,1416C1457.98,1380.67 1443.98,1345 1443.98,1309C1443.98,1301.67 1444.31,1296 1444.98,1292L1496.98,961.001C1501.64,929.668 1518.31,897.668 1546.98,865.001C1572.98,835.668 1601.31,813.335 1631.98,798.001C1672.64,778.001 1709.31,768.001 1741.98,768.001C1795.98,768.001 1839.98,785.168 1873.98,819.501C1907.98,853.835 1924.98,897.668 1924.98,951.001C1924.98,1025.67 1895.64,1087 1836.98,1135C1782.31,1179 1716.64,1201 1639.98,1201C1627.31,1201 1614.64,1200.34 1601.98,1199C1594.64,1227.67 1590.98,1252.34 1590.98,1273C1590.98,1319.67 1610.98,1343 1650.98,1343C1688.31,1343 1715.31,1323.67 1731.98,1285C1733.31,1277 1736.98,1265.34 1742.98,1250C1755.64,1228.67 1779.64,1218 1814.98,1218C1856.31,1218 1876.98,1233.34 1876.98,1264C1876.98,1293.34 1866.98,1324 1846.98,1356C1829.64,1384 1807.98,1408 1781.98,1428ZM1780.98,983.001C1784.31,963.668 1779.81,946.668 1767.48,932.001C1755.14,917.335 1739.31,910.001 1719.98,910.001C1704.64,910.001 1687.64,916.168 1668.98,928.501C1650.31,940.835 1639.98,954.001 1637.98,968.001L1623.98,1055L1711.98,1055C1724.64,1055 1738.81,1046.34 1754.48,1029C1770.14,1011.67 1778.98,996.335 1780.98,983.001Z" style="fill:none;fill-rule:nonzero;stroke:rgb(231,92,101);stroke-width:26px;stroke-linecap:butt;stroke-miterlimit:2;"/>
        <path d="M2108.98,1485C2058.31,1485 2014.98,1467.84 1978.98,1433.5C1942.98,1399.17 1924.98,1356.67 1924.98,1306C1924.98,1295.34 1925.64,1285.67 1926.98,1277C1932.98,1237.67 1959.64,1218 2006.98,1218C2018.31,1218 2030.31,1220.67 2042.98,1226C2058.98,1232 2067.31,1239.67 2067.98,1249C2068.64,1273 2069.31,1287 2069.98,1291C2072.64,1306.34 2078.98,1318 2088.98,1326C2102.31,1337.34 2116.31,1343 2130.98,1343C2150.98,1343 2169.31,1335.84 2185.98,1321.5C2202.64,1307.17 2212.31,1290 2214.98,1270C2217.64,1252.67 2214.81,1237.17 2206.48,1223.5C2198.14,1209.84 2185.64,1201.67 2168.98,1199L2116.98,1191C2094.31,1187 2075.98,1182 2061.98,1176C2032.64,1163.34 2009.98,1140.34 1993.98,1107C1979.31,1077.67 1971.98,1045.67 1971.98,1011C1971.98,943.001 2001.64,883.001 2060.98,831.001C2109.64,789.001 2163.31,768.001 2221.98,768.001C2273.31,768.001 2316.81,785.001 2352.48,819.001C2388.14,853.001 2405.98,895.668 2405.98,947.001C2405.98,957.668 2405.31,967.335 2403.98,976.001C2397.98,1015.34 2371.31,1035 2323.98,1035C2287.31,1035 2266.64,1024.34 2261.98,1003L2261.98,968.001C2261.98,952.001 2255.64,938.335 2242.98,927.001C2230.31,915.668 2215.98,910.001 2199.98,910.001C2179.98,910.001 2161.81,917.335 2145.48,932.001C2129.14,946.668 2119.31,963.668 2115.98,983.001C2113.31,999.001 2116.31,1014.34 2124.98,1029C2133.64,1043.67 2145.98,1051.67 2161.98,1053L2222.98,1060C2264.98,1069.34 2298.31,1090.67 2322.98,1124C2347.64,1157.34 2359.98,1196 2359.98,1240C2359.98,1304.67 2334.31,1361.67 2282.98,1411C2231.64,1460.34 2173.64,1485 2108.98,1485Z" style="fill:none;fill-rule:nonzero;stroke:rgb(231,92,101);stroke-width:26px;stroke-linecap:butt;stroke-miterlimit:2;"/>
    </g>
    <g transform="matrix(1,0,0,1,16.1635,211.27)">
        <path d="M461.977,1414C461.977,1446.67 452.31,1467.67 432.977,1477C422.31,1482.34 400.643,1485 367.977,1485C333.977,1485 308.977,1483.34 292.977,1480C253.643,1472 215.977,1448.5 179.977,1409.5C143.977,1370.5 125.977,1331.34 125.977,1292L125.977,670.001C125.977,657.335 134.977,646.668 152.977,638.001C167.643,630.668 182.31,627.001 196.977,627.001C235.643,627.001 258.31,641.668 264.977,671.001L266.977,766.001C277.643,768.668 291.977,770.001 309.977,770.001C312.643,770.001 316.977,769.668 322.977,769.001L334.977,769.001C362.31,769.001 382.143,773.835 394.477,783.501C406.81,793.168 412.977,811.668 412.977,839.001C412.977,879.001 398.31,901.668 368.977,907.001C336.31,907.668 303.643,908.668 270.977,910.001L267.977,1279C274.643,1304.34 284.477,1321.5 297.477,1330.5C310.477,1339.5 330.643,1344 357.977,1344L383.977,1344C410.643,1344 430.31,1349 442.977,1359C455.643,1369 461.977,1387.34 461.977,1414Z" style="fill:none;fill-rule:nonzero;stroke:rgb(105,186,201);stroke-width:26px;stroke-linecap:butt;stroke-miterlimit:2;"/>
        <path d="M900.977,1293C896.31,1324.34 879.643,1356 850.977,1388C825.643,1418 797.643,1440.34 766.977,1455C725.643,1475 688.643,1485 655.977,1485C596.643,1485 548.977,1462 512.977,1416C484.977,1380.67 470.977,1345 470.977,1309C470.977,1301.67 471.31,1296 471.977,1292L547.977,812.001C549.977,800.001 560.643,789.335 579.977,780.001C595.977,772.001 611.31,768.001 625.977,768.001C637.31,768.001 650.31,771.668 664.977,779.001C683.643,788.335 691.977,799.001 689.977,811.001L614.977,1286C612.977,1298.67 618.31,1311.34 630.977,1324C643.643,1336.67 659.31,1343 677.977,1343C692.643,1343 709.477,1336.84 728.477,1324.5C747.477,1312.17 757.977,1299 759.977,1285L834.977,812.001C836.977,800.001 847.643,789.335 866.977,780.001C883.643,772.001 898.977,768.001 912.977,768.001C926.31,768.001 939.977,771.668 953.977,779.001C971.31,788.335 978.977,799.001 976.977,811.001L900.977,1293Z" style="fill:none;fill-rule:nonzero;stroke:rgb(105,186,201);stroke-width:26px;stroke-linecap:butt;stroke-miterlimit:2;"/>
        <path d="M1377.98,1293C1372.64,1325.67 1356.31,1357.67 1328.98,1389C1304.31,1417.67 1275.98,1439.67 1243.98,1455C1202.64,1475 1165.98,1485 1133.98,1485C1074.64,1485 1026.98,1462 990.977,1416C962.31,1380.67 947.977,1345 947.977,1309C947.977,1303 948.643,1297.34 949.977,1292L1047.98,670.001C1049.98,656.668 1061.64,645.668 1082.98,637.001C1098.98,630.335 1113.31,627.001 1125.98,627.001C1139.98,627.001 1153.98,630.668 1167.98,638.001C1184.64,646.001 1191.98,656.335 1189.98,669.001L1171.98,783.001C1196.64,773.001 1221.64,768.001 1246.98,768.001C1260.31,768.001 1275.64,769.668 1292.98,773.001C1329.64,780.335 1361.98,801.501 1389.98,836.501C1417.98,871.501 1431.98,907.668 1431.98,945.001C1431.98,951.001 1431.64,956.001 1430.98,960.001L1377.98,1293ZM1237.98,1286L1287.98,967.001C1289.98,954.335 1283.31,941.668 1267.98,929.001C1252.64,916.335 1238.31,910.001 1224.98,910.001C1209.64,910.001 1192.64,916.168 1173.98,928.501C1155.31,940.835 1144.98,954.001 1142.98,968.001L1091.98,1285C1089.98,1298.34 1096.64,1311.34 1111.98,1324C1127.31,1336.67 1141.98,1343 1155.98,1343C1169.98,1343 1186.64,1336.84 1205.98,1324.5C1225.31,1312.17 1235.98,1299.34 1237.98,1286Z" style="fill:none;fill-rule:nonzero;stroke:rgb(105,186,201);stroke-width:26px;stroke-linecap:butt;stroke-miterlimit:2;"/>
        <path d="M1781.98,1428C1732.64,1466 1681.64,1485 1628.98,1485C1569.64,1485 1521.98,1462 1485.98,1416C1457.98,1380.67 1443.98,1345 1443.98,1309C1443.98,1301.67 1444.31,1296 1444.98,1292L1496.98,961.001C1501.64,929.668 1518.31,897.668 1546.98,865.001C1572.98,835.668 1601.31,813.335 1631.98,798.001C1672.64,778.001 1709.31,768.001 1741.98,768.001C1795.98,768.001 1839.98,785.168 1873.98,819.501C1907.98,853.835 1924.98,897.668 1924.98,951.001C1924.98,1025.67 1895.64,1087 1836.98,1135C1782.31,1179 1716.64,1201 1639.98,1201C1627.31,1201 1614.64,1200.34 1601.98,1199C1594.64,1227.67 1590.98,1252.34 1590.98,1273C1590.98,1319.67 1610.98,1343 1650.98,1343C1688.31,1343 1715.31,1323.67 1731.98,1285C1733.31,1277 1736.98,1265.34 1742.98,1250C1755.64,1228.67 1779.64,1218 1814.98,1218C1856.31,1218 1876.98,1233.34 1876.98,1264C1876.98,1293.34 1866.98,1324 1846.98,1356C1829.64,1384 1807.98,1408 1781.98,1428ZM1780.98,983.001C1784.31,963.668 1779.81,946.668 1767.48,932.001C1755.14,917.335 1739.31,910.001 1719.98,910.001C1704.64,910.001 1687.64,916.168 1668.98,928.501C1650.31,940.835 1639.98,954.001 1637.98,968.001L1623.98,1055L1711.98,1055C1724.64,1055 1738.81,1046.34 1754.48,1029C1770.14,1011.67 1778.98,996.335 1780.98,983.001Z" style="fill:none;fill-rule:nonzero;stroke:rgb(105,186,201);stroke-width:26px;stroke-linecap:butt;stroke-miterlimit:2;"/>
        <path d="M2108.98,1485C2058.31,1485 2014.98,1467.84 1978.98,1433.5C1942.98,1399.17 1924.98,1356.67 1924.98,1306C1924.98,1295.34 1925.64,1285.67 1926.98,1277C1932.98,1237.67 1959.64,1218 2006.98,1218C2018.31,1218 2030.31,1220.67 2042.98,1226C2058.98,1232 2067.31,1239.67 2067.98,1249C2068.64,1273 2069.31,1287 2069.98,1291C2072.64,1306.34 2078.98,1318 2088.98,1326C2102.31,1337.34 2116.31,1343 2130.98,1343C2150.98,1343 2169.31,1335.84 2185.98,1321.5C2202.64,1307.17 2212.31,1290 2214.98,1270C2217.64,1252.67 2214.81,1237.17 2206.48,1223.5C2198.14,1209.84 2185.64,1201.67 2168.98,1199L2116.98,1191C2094.31,1187 2075.98,1182 2061.98,1176C2032.64,1163.34 2009.98,1140.34 1993.98,1107C1979.31,1077.67 1971.98,1045.67 1971.98,1011C1971.98,943.001 2001.64,883.001 2060.98,831.001C2109.64,789.001 2163.31,768.001 2221.98,768.001C2273.31,768.001 2316.81,785.001 2352.48,819.001C2388.14,853.001 2405.98,895.668 2405.98,947.001C2405.98,957.668 2405.31,967.335 2403.98,976.001C2397.98,1015.34 2371.31,1035 2323.98,1035C2287.31,1035 2266.64,1024.34 2261.98,1003L2261.98,968.001C2261.98,952.001 2255.64,938.335 2242.98,927.001C2230.31,915.668 2215.98,910.001 2199.98,910.001C2179.98,910.001 2161.81,917.335 2145.48,932.001C2129.14,946.668 2119.31,963.668 2115.98,983.001C2113.31,999.001 2116.31,1014.34 2124.98,1029C2133.64,1043.67 2145.98,1051.67 2161.98,1053L2222.98,1060C2264.98,1069.34 2298.31,1090.67 2322.98,1124C2347.64,1157.34 2359.98,1196 2359.98,1240C2359.98,1304.67 2334.31,1361.67 2282.98,1411C2231.64,1460.34 2173.64,1485 2108.98,1485Z" style="fill:none;fill-rule:nonzero;stroke:rgb(105,186,201);stroke-width:26px;stroke-linecap:butt;stroke-miterlimit:2;"/>
    </g>
    <g id="Layer4" transform="matrix(0.880401,0.47423,-0.47423,0.880401,377.569,-1007.81)">
        <g transform="matrix(1.4331,-0.249945,0.214922,1.23228,-841.008,571.607)">
            <path d="M2006.86,170.984C2013.12,150.517 2034.9,134.874 2060.22,134.874C2085.53,134.874 2107.31,150.517 2113.57,170.984C2135.49,165.866 2160.74,175.839 2173.4,196.517C2186.06,217.195 2182.59,242.812 2166.93,258.161C2182.59,273.509 2186.06,299.126 2173.4,319.804C2160.74,340.482 2135.49,350.456 2113.57,345.338C2107.31,365.804 2085.53,381.447 2060.22,381.447C2034.9,381.447 2013.12,365.804 2006.86,345.338C1984.94,350.456 1959.69,340.482 1947.03,319.804C1934.38,299.126 1937.85,273.509 1953.51,258.161C1937.85,242.812 1934.38,217.195 1947.03,196.517C1959.69,175.839 1984.94,165.866 2006.86,170.984Z" style="fill:none;stroke:rgb(231,92,101);stroke-width:7.37px;"/>
        </g>
        <g transform="matrix(1.4331,-0.249945,0.214922,1.23228,-824.01,589.006)">
            <path d="M2006.86,170.984C2013.12,150.517 2034.9,134.874 2060.22,134.874C2085.53,134.874 2107.31,150.517 2113.57,170.984C2135.49,165.866 2160.74,175.839 2173.4,196.517C2186.06,217.195 2182.59,242.812 2166.93,258.161C2182.59,273.509 2186.06,299.126 2173.4,319.804C2160.74,340.482 2135.49,350.456 2113.57,345.338C2107.31,365.804 2085.53,381.447 2060.22,381.447C2034.9,381.447 2013.12,365.804 2006.86,345.338C1984.94,350.456 1959.69,340.482 1947.03,319.804C1934.38,299.126 1937.85,273.509 1953.51,258.161C1937.85,242.812 1934.38,217.195 1947.03,196.517C1959.69,175.839 1984.94,165.866 2006.86,170.984Z" style="fill:none;stroke:rgb(105,186,201);stroke-width:7.37px;"/>
        </g>
        <g transform="matrix(0.892042,0.116453,-0.250422,0.931705,390.811,-140.276)">
            <path d="M2407.22,248.045L2309.87,189.391" style="fill:none;stroke:rgb(231,92,101);stroke-width:11.51px;"/>
        </g>
        <g transform="matrix(0.892042,0.116453,-0.250422,0.931705,390.811,-121.477)">
            <path d="M2407.22,248.045L2309.87,189.391" style="fill:none;stroke:rgb(105,186,201);stroke-width:11.51px;"/>
        </g>
        <g transform="matrix(0.472578,-0.765487,0.746623,0.611016,1153.24,2094.06)">
            <path d="M2407.22,248.045L2309.87,189.391" style="fill:none;stroke:rgb(231,92,101);stroke-width:11.51px;"/>
        </g>
        <g transform="matrix(0.472578,-0.765487,0.746623,0.611016,1153.24,2112.86)">
            <path d="M2407.22,248.045L2309.87,189.391" style="fill:none;stroke:rgb(105,186,201);stroke-width:11.51px;"/>
        </g>
        <g transform="matrix(0.593826,-0.500288,0.326431,0.865634,952.758,1374.24)">
            <path d="M2407.22,248.045L2309.87,189.391" style="fill:none;stroke:rgb(231,92,101);stroke-width:14.28px;"/>
        </g>
        <g transform="matrix(0.593826,-0.500288,0.326431,0.865634,952.758,1393.04)">
            <path d="M2407.22,248.045L2309.87,189.391" style="fill:none;stroke:rgb(105,186,201);stroke-width:14.28px;"/>
        </g>
    </g>
    <g transform="matrix(75.1775,-0.0498644,0.041927,63.2108,-48169.2,-120028)">
        <path d="M651.24,1929.78C651.24,1929.95 651.18,1930.1 651.059,1930.22C650.939,1930.34 650.794,1930.4 650.623,1930.4L649.375,1930.4C649.28,1930.4 649.232,1930.35 649.232,1930.26L649.232,1927.24C649.232,1927.14 649.28,1927.1 649.375,1927.1L650.623,1927.1C650.794,1927.1 650.939,1927.16 651.059,1927.28C651.18,1927.4 651.24,1927.55 651.24,1927.71L651.24,1928.39C651.24,1928.49 651.205,1928.57 651.135,1928.64C651.066,1928.71 650.982,1928.75 650.884,1928.75C650.982,1928.75 651.066,1928.78 651.135,1928.85C651.205,1928.92 651.24,1929.01 651.24,1929.1L651.24,1929.78ZM650.409,1928.38L650.409,1928.02C650.409,1927.96 650.378,1927.93 650.314,1927.93L650.158,1927.93C650.094,1927.93 650.063,1927.96 650.063,1928.02L650.063,1928.38C650.063,1928.45 650.094,1928.48 650.158,1928.48L650.314,1928.48C650.378,1928.48 650.409,1928.45 650.409,1928.38ZM650.409,1929.48L650.409,1929.11C650.409,1929.05 650.378,1929.02 650.314,1929.02L650.158,1929.02C650.094,1929.02 650.063,1929.05 650.063,1929.11L650.063,1929.48C650.063,1929.54 650.094,1929.57 650.158,1929.57L650.314,1929.57C650.378,1929.57 650.409,1929.54 650.409,1929.48Z" style="fill:none;fill-rule:nonzero;stroke:rgb(170,133,40);stroke-width:0.2px;stroke-linecap:butt;stroke-miterlimit:2;"/>
        <path d="M652.298,1930.26C652.298,1930.35 652.251,1930.4 652.156,1930.4L651.61,1930.4C651.515,1930.4 651.468,1930.35 651.468,1930.26L651.468,1927.24C651.468,1927.14 651.515,1927.1 651.61,1927.1L652.156,1927.1C652.251,1927.1 652.298,1927.14 652.298,1927.24L652.298,1930.26Z" style="fill:none;fill-rule:nonzero;stroke:rgb(170,133,40);stroke-width:0.2px;stroke-linecap:butt;stroke-miterlimit:2;"/>
        <path d="M654.533,1930.26C654.533,1930.35 654.486,1930.4 654.391,1930.4L653.845,1930.4C653.75,1930.4 653.703,1930.35 653.703,1930.26L653.703,1929.35C653.703,1929.29 653.671,1929.26 653.608,1929.26L653.451,1929.26C653.388,1929.26 653.356,1929.29 653.356,1929.35L653.356,1930.26C653.356,1930.35 653.309,1930.4 653.214,1930.4L652.668,1930.4C652.573,1930.4 652.526,1930.35 652.526,1930.26L652.526,1927.24C652.526,1927.14 652.573,1927.1 652.668,1927.1L653.214,1927.1C653.309,1927.1 653.356,1927.14 653.356,1927.24L653.356,1928.38C653.356,1928.45 653.388,1928.48 653.451,1928.48L653.608,1928.48C653.671,1928.48 653.703,1928.45 653.703,1928.38L653.703,1927.24C653.703,1927.14 653.75,1927.1 653.845,1927.1L654.391,1927.1C654.486,1927.1 654.533,1927.14 654.533,1927.24L654.533,1928.39C654.533,1928.49 654.499,1928.57 654.429,1928.64C654.359,1928.71 654.276,1928.75 654.178,1928.75C654.276,1928.75 654.359,1928.78 654.429,1928.85C654.499,1928.92 654.533,1929.01 654.533,1929.1L654.533,1930.26Z" style="fill:none;fill-rule:nonzero;stroke:rgb(170,133,40);stroke-width:0.2px;stroke-linecap:butt;stroke-miterlimit:2;"/>
        <path d="M656.626,1930.26C656.626,1930.35 656.579,1930.4 656.484,1930.4L655.378,1930.4C655.207,1930.4 655.062,1930.34 654.942,1930.22C654.821,1930.1 654.761,1929.95 654.761,1929.78L654.761,1927.71C654.761,1927.55 654.821,1927.4 654.942,1927.28C655.062,1927.16 655.207,1927.1 655.378,1927.1L656.484,1927.1C656.579,1927.1 656.626,1927.14 656.626,1927.24L656.626,1927.79C656.626,1927.88 656.579,1927.93 656.484,1927.93L655.687,1927.93C655.623,1927.93 655.592,1927.96 655.592,1928.02L655.592,1928.26C655.592,1928.32 655.623,1928.36 655.687,1928.36L656.484,1928.36C656.579,1928.36 656.626,1928.4 656.626,1928.5L656.626,1929.04C656.626,1929.14 656.579,1929.18 656.484,1929.18L655.687,1929.18C655.623,1929.18 655.592,1929.22 655.592,1929.28L655.592,1929.48C655.592,1929.54 655.623,1929.57 655.687,1929.57L656.484,1929.57C656.579,1929.57 656.626,1929.62 656.626,1929.71L656.626,1930.26Z" style="fill:none;fill-rule:nonzero;stroke:rgb(170,133,40);stroke-width:0.2px;stroke-linecap:butt;stroke-miterlimit:2;"/>
        <path d="M660.433,1929.78C660.433,1929.95 660.373,1930.1 660.252,1930.22C660.132,1930.34 659.987,1930.4 659.816,1930.4L658.568,1930.4C658.473,1930.4 658.425,1930.35 658.425,1930.26L658.425,1929.71C658.425,1929.62 658.473,1929.57 658.568,1929.57L659.507,1929.57C659.571,1929.57 659.602,1929.54 659.602,1929.48L659.602,1929.25C659.602,1929.19 659.571,1929.16 659.507,1929.16L659.042,1929.16C658.871,1929.16 658.726,1929.1 658.606,1928.98C658.485,1928.86 658.425,1928.72 658.425,1928.54L658.425,1927.71C658.425,1927.55 658.485,1927.4 658.606,1927.28C658.726,1927.16 658.871,1927.1 659.042,1927.1L660.29,1927.1C660.385,1927.1 660.433,1927.14 660.433,1927.24L660.433,1927.79C660.433,1927.88 660.385,1927.93 660.29,1927.93L659.351,1927.93C659.287,1927.93 659.256,1927.96 659.256,1928.02L659.256,1928.24C659.256,1928.29 659.283,1928.33 659.336,1928.33L659.816,1928.33C659.987,1928.33 660.132,1928.39 660.252,1928.51C660.373,1928.63 660.433,1928.78 660.433,1928.95L660.433,1929.78Z" style="fill:none;fill-rule:nonzero;stroke:rgb(170,133,40);stroke-width:0.2px;stroke-linecap:butt;stroke-miterlimit:2;"/>
        <path d="M662.668,1930.26C662.668,1930.35 662.621,1930.4 662.526,1930.4L661.98,1930.4C661.885,1930.4 661.838,1930.35 661.838,1930.26L661.838,1929.28C661.838,1929.22 661.806,1929.18 661.743,1929.18L661.586,1929.18C661.523,1929.18 661.491,1929.22 661.491,1929.28L661.491,1930.26C661.491,1930.35 661.444,1930.4 661.349,1930.4L660.803,1930.4C660.708,1930.4 660.661,1930.35 660.661,1930.26L660.661,1927.24C660.661,1927.14 660.708,1927.1 660.803,1927.1L661.349,1927.1C661.444,1927.1 661.491,1927.14 661.491,1927.24L661.491,1928.26C661.491,1928.32 661.523,1928.36 661.586,1928.36L661.743,1928.36C661.803,1928.36 661.834,1928.32 661.838,1928.26L661.838,1927.24C661.838,1927.14 661.885,1927.1 661.98,1927.1L662.526,1927.1C662.621,1927.1 662.668,1927.14 662.668,1927.24L662.668,1930.26Z" style="fill:none;fill-rule:nonzero;stroke:rgb(170,133,40);stroke-width:0.2px;stroke-linecap:butt;stroke-miterlimit:2;"/>
        <path d="M664.904,1929.78C664.904,1929.95 664.843,1930.1 664.723,1930.22C664.603,1930.34 664.457,1930.4 664.287,1930.4L663.513,1930.4C663.342,1930.4 663.197,1930.34 663.076,1930.22C662.956,1930.1 662.896,1929.95 662.896,1929.78L662.896,1927.71C662.896,1927.55 662.956,1927.4 663.076,1927.28C663.197,1927.16 663.342,1927.1 663.513,1927.1L664.287,1927.1C664.457,1927.1 664.603,1927.16 664.723,1927.28C664.843,1927.4 664.904,1927.55 664.904,1927.71L664.904,1929.78ZM664.073,1929.48L664.073,1928.02C664.073,1927.96 664.041,1927.93 663.978,1927.93L663.821,1927.93C663.758,1927.93 663.727,1927.96 663.727,1928.02L663.727,1929.48C663.727,1929.54 663.758,1929.57 663.821,1929.57L663.978,1929.57C664.041,1929.57 664.073,1929.54 664.073,1929.48Z" style="fill:none;fill-rule:nonzero;stroke:rgb(170,133,40);stroke-width:0.2px;stroke-linecap:butt;stroke-miterlimit:2;"/>
        <path d="M667.139,1928.7C667.139,1928.86 667.079,1929.01 666.959,1929.13C666.838,1929.25 666.693,1929.31 666.522,1929.31L666.057,1929.31C665.994,1929.31 665.962,1929.35 665.962,1929.41L665.962,1930.26C665.962,1930.35 665.914,1930.4 665.819,1930.4L665.274,1930.4C665.179,1930.4 665.131,1930.35 665.131,1930.26L665.131,1927.24C665.131,1927.14 665.179,1927.1 665.274,1927.1L666.522,1927.1C666.693,1927.1 666.838,1927.16 666.959,1927.28C667.079,1927.4 667.139,1927.55 667.139,1927.71L667.139,1928.7ZM666.308,1928.39L666.308,1928.02C666.308,1927.96 666.277,1927.93 666.213,1927.93L666.057,1927.93C665.994,1927.93 665.962,1927.96 665.962,1928.02L665.962,1928.39C665.962,1928.45 665.994,1928.48 666.057,1928.48L666.213,1928.48C666.277,1928.48 666.308,1928.45 666.308,1928.39Z" style="fill:none;fill-rule:nonzero;stroke:rgb(170,133,40);stroke-width:0.2px;stroke-linecap:butt;stroke-miterlimit:2;"/>
    </g>
</svg>
